<?xml version="1.0" standalone="no"?>
<!DOCTYPE svg PUBLIC "-//W3C//DTD SVG 20010904//EN"
 "http://www.w3.org/TR/2001/REC-SVG-20010904/DTD/svg10.dtd">
<svg version="1.0" xmlns="http://www.w3.org/2000/svg"
 width="500.000000pt" height="500.000000pt" viewBox="0 0 500.000000 500.000000"
 preserveAspectRatio="xMidYMid meet">
<metadata>
Created by potrace 1.16, written by Peter Selinger 2001-2019
</metadata>
<g transform="translate(0.000000,500.000000) scale(0.100000,-0.100000)"
fill="#000000" stroke="none">
<path d="M2905 3914 c-75 -12 -194 -48 -266 -81 -44 -20 -78 -38 -76 -40 2 -2
33 6 68 16 147 46 322 51 462 15 374 -97 627 -428 627 -823 0 -243 -81 -453
-244 -628 -32 -35 -54 -63 -49 -63 23 0 144 88 211 154 176 170 262 371 263
611 0 142 -21 238 -80 360 -106 221 -301 382 -550 452 -65 18 -117 25 -211 28
-69 2 -138 1 -155 -1z"/>
<path d="M1465 3468 c-37 -32 -37 -83 -1 -115 15 -12 36 -23 47 -23 24 0 79
52 79 74 0 28 -22 64 -47 75 -35 16 -49 14 -78 -11z"/>
<path d="M2745 3458 c-3 -7 -4 -150 -3 -318 l3 -305 63 -3 c34 -2 62 1 62 5 0
4 1 58 3 120 2 103 4 113 26 137 30 32 74 34 99 6 13 -16 18 -46 22 -143 l5
-122 63 -3 62 -3 0 146 c0 121 -3 152 -17 176 -37 63 -155 89 -221 49 -18 -11
-34 -20 -37 -20 -2 0 -4 64 -4 143 l1 142 -61 3 c-44 2 -63 -1 -66 -10z"/>
<path d="M3235 3457 c-3 -7 -4 -149 -3 -317 l3 -305 64 0 63 0 0 65 c0 36 2
68 5 73 2 4 38 -27 80 -68 l76 -75 74 0 c40 0 73 3 73 7 0 4 -42 49 -92 100
l-93 93 90 90 90 90 -86 0 -85 0 -59 -60 c-59 -60 -77 -71 -74 -47 1 6 1 92 0
190 l-1 177 -60 0 c-40 0 -62 -4 -65 -13z"/>
<path d="M1668 3283 c-3 -66 -4 -68 -31 -71 -27 -3 -28 -6 -25 -50 3 -43 5
-47 31 -50 l27 -3 0 -94 c0 -52 4 -105 9 -118 23 -59 85 -85 161 -68 23 5 44
11 46 14 3 3 -1 27 -9 53 -12 43 -17 48 -43 49 l-29 0 -3 82 -3 82 38 3 c38 3
38 3 41 51 l3 47 -40 0 -41 0 0 70 0 70 -65 0 -64 0 -3 -67z"/>
<path d="M1450 3233 c-1 -10 -1 -97 -1 -193 1 -96 -3 -191 -7 -210 -7 -31 -12
-35 -40 -34 -29 2 -32 -2 -48 -48 -19 -58 -15 -63 53 -74 51 -8 102 8 134 42
24 25 24 27 27 280 l3 254 -61 0 c-50 0 -60 -3 -60 -17z"/>
<path d="M2019 3197 c-122 -65 -144 -223 -44 -315 84 -78 216 -79 299 -2 l40
38 -34 21 c-41 25 -73 27 -90 6 -16 -19 -89 -20 -117 0 -23 16 -37 55 -20 55
7 1 67 1 134 1 72 0 125 4 129 10 11 18 -6 97 -29 131 -50 75 -179 102 -268
55z"/>
<path d="M2470 3198 c-24 -13 -57 -40 -74 -61 -25 -31 -31 -49 -34 -102 -4
-52 0 -70 19 -104 26 -47 79 -87 134 -102 50 -14 142 0 173 26 2 2 -6 21 -17
44 -21 40 -22 40 -65 35 -52 -8 -80 6 -102 47 -37 73 32 153 114 130 31 -9 33
-8 52 29 11 22 20 42 20 45 0 3 -16 13 -35 21 -52 21 -133 18 -185 -8z"/>
</g>
</svg>
